# xmcd CD database file
#
# Track frame offsets:
#	150
#	16910
#	38223
#	67578
#	86062
#	104818
#	126743
#	150401
#	167459
#
# Disc length: 2609 seconds
#
# Revision: 1
# Processed by: cddbd v1.5.2PL0 Copyright (c) Steve Scherf et al.
# Submitted via: CDex 1.79
#
DISCID=6c0a2f09
DTITLE=Jeff Beck - Live In Tokyo 1999 Disc1
DYEAR=1999
DGENRE=Jazz
TTITLE0=What Mama Said
TTITLE1=Psycho Sam
TTITLE2=Brush With The Blues
TTITLE3=Star Cycle
TTITLE4=Savoy
TTITLE5=Blast From The East
TTITLE6=A Day In The Life
TTITLE7=Declan
TTITLE8=THX138
EXTD=YEAR: 1999
EXTT0=
EXTT1=
EXTT2=
EXTT3=
EXTT4=
EXTT5=
EXTT6=
EXTT7=
EXTT8=
PLAYORDER=
